<svg width="42" height="48" viewBox="0 0 42 48" fill="none" xmlns="http://www.w3.org/2000/svg">
<path d="M8.74444 5.77503C8.02257 5.97191 7.21046 6.50628 6.64444 7.15316C5.77491 8.14691 5.2335 9.77816 5.36475 11.025C5.52061 12.5532 6.68546 14.9063 8.14561 16.6594C9.22843 17.9438 9.61397 18.1782 10.1636 17.8969C10.9183 17.5125 12.5015 15.45 13.3136 13.8C14.3226 11.7469 14.4866 10.5 13.9534 8.88753C13.1741 6.55316 10.8937 5.18441 8.74444 5.77503ZM10.623 6.99378C12.3292 7.50003 13.4941 9.54378 13.0921 11.3438C12.805 12.6 11.6648 14.6344 10.4179 16.0969L9.83546 16.7813L9.61397 16.5938C8.80186 15.8813 7.12843 13.2469 6.71827 12.0657C6.41475 11.1563 6.36554 10.7532 6.47218 10.0782C6.71827 8.57816 7.67804 7.37816 8.94132 6.99378C9.53194 6.81566 10.0241 6.81566 10.623 6.99378Z" fill="black"/>
<path d="M9.0154 8.74711C7.58805 9.60961 8.03923 12.1127 9.63884 12.2627C10.697 12.3659 11.6158 11.2784 11.4435 10.1252C11.2549 8.84086 10.0162 8.14711 9.0154 8.74711Z" fill="black"/>
<path d="M30.7204 6.79705C30.4415 7.10643 30.4661 7.3408 30.8107 7.78143L31.106 8.15643L30.8107 8.53143C30.4661 8.97205 30.4415 9.20643 30.7204 9.5158C30.9911 9.83455 31.1962 9.80643 31.5818 9.41268L31.9099 9.07518L32.238 9.41268C32.6154 9.80643 32.8779 9.83455 33.124 9.53455C33.3783 9.22518 33.3454 8.96268 33.0091 8.53143L32.7138 8.15643L33.0091 7.78143C33.3618 7.33143 33.3865 7.02205 33.0911 6.75955C32.7876 6.48768 32.6154 6.5158 32.238 6.90018L31.9099 7.23768L31.5818 6.90018C31.1962 6.50643 30.9911 6.4783 30.7204 6.79705Z" fill="black"/>
<path d="M25.1016 7.40619C25.0113 7.50932 24.9375 7.69682 24.9375 7.82807C24.9375 8.34369 25.5691 8.64369 25.8645 8.26869C26.168 7.88432 25.9137 7.21869 25.4707 7.21869C25.3559 7.21869 25.1918 7.30307 25.1016 7.40619Z" fill="black"/>
<path d="M15.5859 11.9062C15.4957 12.0094 15.4219 12.1969 15.4219 12.3281C15.4219 12.7969 15.668 12.9375 16.5211 12.9375C17.2676 12.9375 17.3004 12.9281 17.4727 12.6844C17.5957 12.5062 17.6285 12.3562 17.5957 12.1875C17.5137 11.7937 17.3414 11.7188 16.5129 11.7188C15.8566 11.7188 15.7254 11.7469 15.5859 11.9062Z" fill="black"/>
<path d="M18.457 11.9062C18.3668 12.0094 18.293 12.1969 18.293 12.3281C18.293 12.4594 18.3668 12.6469 18.457 12.75C18.6047 12.9187 18.7277 12.9375 19.6711 12.9375C20.8852 12.9375 21.082 12.8531 21.082 12.3375C21.082 11.7937 20.9262 11.7188 19.7039 11.7188C18.7277 11.7188 18.6047 11.7375 18.457 11.9062Z" fill="black"/>
<path d="M21.9598 11.8873C21.8777 11.9811 21.8203 12.1967 21.8203 12.3561C21.8203 12.8436 22.0336 12.928 23.2395 12.9467C24.1418 12.9561 24.3141 12.9373 24.4535 12.7873C24.6832 12.553 24.6504 12.1498 24.3961 11.9155C24.1992 11.7373 24.068 11.7186 23.1328 11.7186C22.2305 11.7186 22.0746 11.7373 21.9598 11.8873Z" fill="black"/>
<path d="M25.446 12.5625C25.0605 12.7406 25.0523 13.4156 25.4378 13.725C25.5445 13.8 25.6101 13.8844 25.5855 13.9031C25.5691 13.9219 25.4132 14.0344 25.2492 14.1469C24.7734 14.475 24.1171 15.3656 23.8218 16.0781C23.3789 17.1469 23.2968 17.6625 23.2968 19.425C23.2968 20.925 23.2886 21.0281 23.0917 21.4688L22.8867 21.9375H22.3288C21.648 21.9375 21.4101 22.0875 21.4101 22.5375C21.4101 22.9313 21.6234 23.1563 22.0089 23.1563C22.173 23.1563 22.3124 23.175 22.3124 23.1938C22.3124 23.2125 22.1812 23.55 22.0253 23.9344C21.8121 24.4781 21.6234 24.7781 21.2296 25.2C20.3765 26.1188 18.2355 28.275 17.1527 29.3156L16.1355 30.2813H15.4218C14.8476 30.2813 14.6835 30.3094 14.5769 30.4406C14.3308 30.7688 14.3718 31.1813 14.6753 31.3781L14.905 31.5375L14.4621 32.1938C13.9124 33.0188 13.4285 34.1344 13.1988 35.1188C13.0675 35.6813 13.0183 36.1594 13.0101 37.0969L13.0019 38.325L12.3046 38.5688C10.2867 39.2719 8.59682 39.1031 6.68549 38.0156C5.9308 37.5844 5.70111 37.5 5.34838 37.5C4.14252 37.5 3.39604 38.5688 3.80619 39.6938C3.95385 40.0875 4.28197 40.3781 5.20893 40.9031C6.14408 41.4281 7.09564 41.775 8.15385 41.9719C9.61401 42.2344 12.2554 42.0375 13.5269 41.5781C13.6746 41.5313 13.7074 41.5688 13.7484 41.8125C13.855 42.4125 13.3382 42.3844 22.5257 42.3563L30.8847 42.3281L31.2456 42.0938C31.4425 41.9625 31.7214 41.7 31.8609 41.5031C32.0906 41.175 32.1152 41.0719 32.1152 40.5C32.1152 39.9281 32.0906 39.825 31.8609 39.4969C31.541 39.0563 31.0078 38.7281 30.4499 38.6531C30.13 38.6156 30.0234 38.5594 30.0234 38.4469C30.0234 38.3625 30.13 37.1813 30.2613 35.8125L30.4992 33.3281L31.3605 30.5156C31.8363 28.9688 32.4023 27.15 32.6156 26.4844C33.0011 25.3031 33.0093 25.2281 33.0503 23.9625L33.0996 22.6594L34.3054 22.3031C35.0765 22.0781 35.7328 21.825 36.1101 21.6C36.873 21.1406 37.7015 20.2219 38.0296 19.4531C38.2593 18.9188 38.2675 18.825 38.2921 17.4094C38.3167 16.1063 38.3003 15.9 38.1773 15.7406C38.046 15.5719 37.8984 15.5625 35.8968 15.5625H33.764L33.0175 15C31.4671 13.8375 30.9585 13.6781 28.6042 13.6219C26.8898 13.575 26.816 13.5656 26.6765 13.3688C26.455 13.0406 25.9792 12.5906 25.7988 12.5344C25.7085 12.5063 25.5527 12.525 25.446 12.5625ZM31.0242 15.15C31.2785 15.2625 31.9183 15.675 32.4515 16.0688L33.4113 16.7813H35.3308H37.2421V17.6063C37.2421 18.6281 37.0289 19.1813 36.3726 19.8656C35.7984 20.4656 35.2898 20.7469 34.1332 21.0844L33.198 21.3656L32.9191 21.0938C32.5992 20.7656 32.4105 20.7469 32.148 20.9906C31.9511 21.1688 31.9511 21.2063 31.9101 23.2219L31.8691 25.2656L30.655 29.1563L29.441 33.0469L29.1456 36.2063C28.7847 40.0594 28.7273 39.8063 29.8921 39.8625C30.573 39.8906 30.7042 39.9281 30.8847 40.125C31.1472 40.4063 31.1472 40.5938 30.8765 40.8844C30.6796 41.1 30.614 41.1094 29.3589 41.1375L28.0546 41.1656L28.1367 40.9219C28.2679 40.5281 28.2269 39.6469 28.0628 39.2344C27.9808 39.0281 27.7839 38.7281 27.6363 38.5594C27.1523 38.0438 26.8898 37.9688 25.4706 37.9688H24.191L24.2566 37.6125C24.2894 37.425 24.314 36.9469 24.314 36.5625C24.2894 34.3031 22.9359 32.2969 21.041 31.725C20.4257 31.5281 19.3101 31.5563 18.6949 31.7813C17.6531 32.1469 16.5703 33.0844 16.5703 33.6188C16.5703 33.7594 16.6277 33.9563 16.7097 34.05C16.9394 34.3406 17.2593 34.2656 17.7351 33.7875C17.9648 33.5438 18.3667 33.2344 18.6128 33.1031C19.0148 32.8875 19.1789 32.8594 19.9335 32.8594C20.7374 32.8594 20.8359 32.8781 21.3363 33.1594C23.0753 34.1438 23.7316 36.4688 22.8374 38.4938C22.5093 39.225 22.5093 39.4594 22.8539 39.7125C23.0999 39.9 23.4691 39.7594 23.6249 39.4125C23.7316 39.1875 23.7398 39.1875 25.1179 39.1875C26.5863 39.1875 26.8816 39.2625 27.0703 39.6469C27.2835 40.1063 27.1113 40.7719 26.7093 41.0156C26.4796 41.1469 25.8972 41.1656 20.598 41.1375L14.7328 41.1094L14.6589 40.7813C14.5113 40.125 14.2652 40.0031 13.6089 40.275C12.7312 40.6313 11.8453 40.7906 10.4507 40.8469C8.32611 40.9313 7.05463 40.6406 5.49604 39.7219C4.77416 39.2906 4.6183 39.0656 4.889 38.8406C5.1433 38.625 5.53705 38.7 6.16869 39.0844C7.57963 39.9563 9.3433 40.35 10.8855 40.1438C11.9191 40.0031 12.8624 39.7219 13.5351 39.3469L14.0683 39.0469L14.0437 37.8281C14.0027 35.9438 14.2816 34.6969 15.0445 33.3938C15.5285 32.5688 16.0289 31.9969 17.5136 30.5719C19.0066 29.1469 20.4914 27.6563 21.6808 26.4L22.5749 25.4625L23.346 23.7C23.7726 22.7344 24.1335 21.9375 24.1499 21.9375C24.1664 21.9375 24.3796 22.05 24.6175 22.1906C25.0031 22.425 25.1425 22.4531 25.7988 22.4531C26.4058 22.4531 26.6027 22.4156 26.8816 22.2375C27.3738 21.9375 27.8003 21.4313 28.0382 20.8219C28.2433 20.325 28.2515 20.2125 28.2597 18.7313C28.2597 16.9875 28.2187 16.8469 27.7265 16.8469C27.2425 16.8469 27.2015 16.9969 27.1523 18.7313C27.1113 20.1844 27.0949 20.3156 26.9226 20.6063C26.332 21.5438 25.0523 21.4781 24.5437 20.4844C24.3714 20.1375 24.3632 20.025 24.3878 18.8906C24.4206 17.475 24.5519 16.9313 25.0605 16.0875C25.241 15.7781 25.5691 15.3938 25.7988 15.2156L26.2007 14.8969L28.3746 14.925C30.3679 14.9531 30.5976 14.9719 31.0242 15.15Z" fill="black"/>
<path d="M30.8029 16.4439C30.3763 16.9314 30.4994 17.7001 31.049 17.9626C31.8693 18.3564 32.5501 17.2126 31.9185 16.4907C31.5986 16.1345 31.0982 16.1064 30.8029 16.4439Z" fill="black"/>
<path d="M9.18742 22.0687C8.94133 22.1249 8.68703 22.2093 8.62961 22.2562C8.30969 22.4812 8.39992 23.203 8.75265 23.3062C8.8593 23.3437 9.16281 23.3155 9.4089 23.2593C9.6632 23.203 10.1964 23.1562 10.5902 23.1562C11.271 23.1562 11.3202 23.1468 11.4761 22.903C11.673 22.6218 11.6402 22.3593 11.3859 22.0968C11.2546 21.9655 11.0741 21.9374 10.4261 21.9468C9.99133 21.9468 9.43351 22.003 9.18742 22.0687Z" fill="black"/>
<path d="M12.8789 22.125C12.7887 22.2281 12.7148 22.4156 12.7148 22.5469C12.7148 22.6781 12.7887 22.8656 12.8789 22.9688C13.0266 23.1375 13.1496 23.1562 14.3391 23.1562C15.791 23.1562 15.9141 23.1094 15.9141 22.5187C15.9141 22.0031 15.7172 21.9375 14.298 21.9375C13.1496 21.9375 13.0266 21.9562 12.8789 22.125Z" fill="black"/>
<path d="M17.2431 22.0875C17.0134 22.2656 16.997 22.7812 17.2103 22.9969C17.3415 23.1281 17.563 23.1562 18.6458 23.1562C19.8271 23.1562 19.9501 23.1375 20.0978 22.9688C20.188 22.8656 20.2618 22.6781 20.2618 22.5469C20.2618 22.4156 20.188 22.2281 20.0978 22.125C19.9501 21.9562 19.8271 21.9375 18.6786 21.9375C17.6779 21.9375 17.3907 21.9656 17.2431 22.0875Z" fill="black"/>
<path d="M6.87433 23.7189C6.35753 24.1783 5.7505 26.2127 5.98019 26.7095C6.03761 26.822 6.17706 26.9533 6.30011 27.0095C6.64464 27.1595 6.89894 26.8783 7.02198 26.1939C7.13683 25.5283 7.31729 25.0127 7.54698 24.6845C7.98995 24.0377 7.42394 23.222 6.87433 23.7189Z" fill="black"/>
<path d="M6.5625 28.4061C6.47227 28.5092 6.39844 28.6967 6.39844 28.8186C6.39844 29.278 7.39102 30.5061 8.09648 30.928C8.56406 31.1998 9.06445 30.9186 9.00703 30.4123C8.99062 30.2061 8.87578 30.0655 8.53125 29.803C8.12109 29.4936 7.89961 29.2498 7.32539 28.4623C7.11211 28.1717 6.79219 28.1436 6.5625 28.4061Z" fill="black"/>
<path d="M34.0511 29.8688C33.8542 30.1594 33.846 30.2156 33.9691 30.4969C34.1003 30.7688 34.1987 30.8438 34.4612 30.8438C34.9124 30.8438 35.1339 30.0656 34.7648 29.775C34.4941 29.5594 34.2398 29.5969 34.0511 29.8688Z" fill="black"/>
<path d="M10.2294 30.45C10.0407 30.6844 10.0571 31.0875 10.254 31.3125C10.4016 31.4812 10.5247 31.5 11.6895 31.5C12.8544 31.5 12.9774 31.4812 13.1251 31.3125C13.2153 31.2094 13.2891 31.0219 13.2891 30.8906C13.2891 30.7594 13.2153 30.5719 13.1251 30.4688C12.9774 30.3 12.8544 30.2812 11.6649 30.2812C10.5083 30.2812 10.3442 30.3 10.2294 30.45Z" fill="black"/>
</svg>
