<svg width="40" height="40" viewBox="0 0 40 40" fill="none" xmlns="http://www.w3.org/2000/svg">
<path d="M15.0313 0.0248451C14.914 0.0415916 14.4868 0.100204 14.0679 0.15044C10.6666 0.577469 7.29889 2.25208 4.76889 4.78912C2.28077 7.26754 0.772824 10.2232 0.144512 13.832C-0.0481706 14.9875 -0.0481706 17.6166 0.144512 18.7721C0.781202 22.4395 2.24726 25.3031 4.76051 27.8234C6.50303 29.5566 8.35446 30.7623 10.5326 31.5745C14.0847 32.8975 17.8545 32.9728 21.4652 31.7838C23.0821 31.2563 24.9922 30.2265 26.3074 29.1882C26.5923 28.9621 26.8603 28.7779 26.8939 28.7779C26.9357 28.7779 30.136 31.9429 34.0064 35.8113L38.1988 40L39.1036 39.0957L40 38.1998L35.8075 34.0111C31.9371 30.1427 28.7704 26.9442 28.7704 26.9023C28.7704 26.8689 28.9547 26.6009 29.1809 26.3162C30.2197 25.0017 31.2502 23.0926 31.7779 21.4766C32.9675 17.8678 32.8921 14.0999 31.5685 10.5498C30.7559 8.37277 29.5495 6.51397 27.8154 4.78075C25.3105 2.2772 22.3784 0.786793 18.8012 0.183933C18.0388 0.0583382 15.4753 -0.0505104 15.0313 0.0248451ZM17.5865 2.57026C20.8369 2.88006 23.7439 4.24486 26.0477 6.54745C27.8489 8.35603 29.0804 10.4995 29.6919 12.9361C30.0941 14.527 30.2113 16.4528 30.0187 18.0018L29.9181 18.747L28.0081 16.8379L26.0896 14.9205V11.1359V7.34289H21.1637C15.8188 7.34289 15.7685 7.34289 14.8386 7.81178C14.6041 7.93738 14.1601 8.28904 13.8585 8.59047C13.3726 9.06773 13.205 9.34404 12.5348 10.667L11.7557 12.1993H7.57535H3.3866V13.7399V15.2805L5.12074 18.32C7.03081 21.6441 7.32403 22.0376 8.32095 22.5651C9.1587 23.0172 9.66973 23.0842 12.3338 23.0842H14.6962V26.5591C14.6962 28.4681 14.6627 30.0339 14.6292 30.0339C14.4533 30.0339 13.4982 29.8413 12.8951 29.6906C7.83505 28.3928 3.90601 24.3402 2.80856 19.2745C1.56031 13.5641 3.98978 7.79504 8.97439 4.60491C11.4541 3.0224 14.5706 2.28557 17.5865 2.57026ZM17.7121 11.722C17.7121 13.6729 17.7708 14.1251 18.1394 14.9456C18.6755 16.1681 19.8819 17.064 21.3396 17.3236C22.0265 17.4492 22.9564 17.2901 23.7104 16.9384L24.3052 16.6537L26.7263 19.0735L29.139 21.4934L28.6196 22.5149C26.4666 26.7516 22.3449 29.5901 17.6535 30.0674L17.2095 30.1092V25.345V20.5807L13.5066 20.5556C9.44353 20.5304 9.56082 20.5388 9.07492 20.0113C8.94926 19.8857 8.20366 18.6465 7.41618 17.265L5.98363 14.753L9.64459 14.7112L13.3056 14.6693L14.3527 12.6263C14.9308 11.4959 15.5172 10.466 15.6513 10.3321C16.0115 9.97202 16.3382 9.86317 17.0671 9.8548H17.7121V11.722ZM23.5596 11.8057L23.5345 13.765L23.2999 14.0999C22.8894 14.6944 22.1522 14.9707 21.4736 14.7949C21.0045 14.6693 20.4432 14.1251 20.3175 13.6645C20.2673 13.472 20.2254 12.6095 20.2254 11.588V9.8548H21.9092H23.5847L23.5596 11.8057Z" fill="black"/>
</svg>
