<svg width="24" height="24" viewBox="0 0 24 24" fill="none" xmlns="http://www.w3.org/2000/svg">
<path d="M12 21.1632C17.5228 21.1632 22 16.8563 22 11.5435C22 6.23071 17.5228 1.92383 12 1.92383C6.47715 1.92383 2 6.23071 2 11.5435C2 16.8563 6.47715 21.1632 12 21.1632Z" stroke="#3A3A3A" stroke-width="1.5" stroke-linecap="round" stroke-linejoin="round"/>
<path d="M8.0001 2.88574H9.0001C7.0501 8.50364 7.0501 14.5833 9.0001 20.2012H8.0001" stroke="#3A3A3A" stroke-width="1.5" stroke-linecap="round" stroke-linejoin="round"/>
<path d="M15 2.88574C16.95 8.50364 16.95 14.5833 15 20.2012" stroke="#3A3A3A" stroke-width="1.5" stroke-linecap="round" stroke-linejoin="round"/>
<path d="M3 15.3917V14.4297C8.84 16.3055 15.16 16.3055 21 14.4297V15.3917" stroke="#3A3A3A" stroke-width="1.5" stroke-linecap="round" stroke-linejoin="round"/>
<path d="M3 8.65786C8.84 6.78202 15.16 6.78202 21 8.65786" stroke="#3A3A3A" stroke-width="1.5" stroke-linecap="round" stroke-linejoin="round"/>
</svg>
