<svg width="109" height="76" viewBox="0 0 109 76" fill="none" xmlns="http://www.w3.org/2000/svg">
<path d="M65.1106 1.39677C52.884 5.34572 46.5809 13.1677 45.138 26.2296C44.2267 35.2666 44.0749 35.5703 40.9613 37.5448C39.2906 38.608 35.3416 40.2028 32.0761 41.0381C26.2287 42.7088 26.0768 42.7088 19.6977 41.3419C11.4201 39.6712 7.1674 37.6967 6.10422 35.0388C5.34481 32.9883 4.58539 7.92772 5.26887 7.24425C5.49669 7.09237 7.47116 8.38337 9.7494 10.2819C11.9517 12.1045 14.0021 13.6233 14.3818 13.6233C14.6856 13.6233 16.4322 13.0917 18.1789 12.4842C22.4316 10.9654 28.7347 11.0413 32.6077 12.5601C35.5694 13.7752 35.7213 13.7752 38.1514 11.8767C44.2267 7.24425 47.1125 4.13066 46.6569 2.76371C45.8215 0.63736 43.4673 1.24489 39.1387 4.81413L35.0378 8.15554L31.013 7.01643C26.9121 5.95325 20.609 6.18107 16.9638 7.54802C15.5969 8.0796 14.5337 7.62395 11.496 5.19384C6.48393 1.24489 3.90192 0.789242 1.62368 3.21936C-0.122965 5.11789 -0.122965 5.26978 0.104859 20.534C0.332682 38.0764 0.560506 38.6839 6.40798 42.1013C10.3569 44.4555 20.3812 47.0375 25.4692 47.0375C32.3799 47.0375 43.6951 42.7848 47.2644 38.8358C48.2516 37.7726 49.011 34.8109 49.7705 29.0394C51.1374 18.7873 53.3397 13.7752 58.1999 10.2819C63.8955 6.18107 68.3761 4.89007 77.0334 4.96601C86.6779 4.96601 91.9938 6.86454 97.2337 12.1045C101.335 16.2053 102.853 20.3061 103.689 29.2672C104.296 36.1779 106.195 38.8358 108.473 36.1019C109.916 34.4312 108.169 21.0656 105.967 16.2053C102.55 8.68713 95.8668 3.37124 86.9817 1.01706C81.438 -0.501762 70.4265 -0.273937 65.1106 1.39677Z" fill="black"/>
<path d="M65.0348 17.2685C63.2882 19.167 63.4401 21.4452 65.3386 23.1919C66.7815 24.4829 67.0853 24.4829 68.9079 23.4197C71.6417 21.9009 72.0214 18.7873 69.6673 17.1166C67.465 15.5218 66.5537 15.5977 65.0348 17.2685Z" fill="black"/>
<path d="M83.5644 17.3445C81.4381 19.4708 81.514 21.6731 83.7923 23.116C87.0577 25.3183 90.7029 22.5085 89.4119 18.7874C88.9563 17.6482 88.3487 16.661 88.045 16.661C87.6653 16.661 86.9058 16.4332 86.2983 16.2054C85.6148 15.9775 84.3998 16.5091 83.5644 17.3445Z" fill="black"/>
<path d="M13.4706 21.7491C11.8759 22.1288 10.9646 25.0146 11.724 27.2169C12.8631 30.938 18.9384 29.3432 18.9384 25.3183C18.9384 23.7995 16.3564 21.0656 15.1413 21.2935C14.9135 21.3694 14.1541 21.5213 13.4706 21.7491Z" fill="black"/>
<path d="M32.6836 22.6603C30.7091 24.6347 30.7091 26.1536 32.6077 28.0521C34.5821 30.0266 35.9491 29.9506 37.9236 27.9002C41.3409 24.255 36.1769 19.167 32.6836 22.6603Z" fill="black"/>
<path d="M56.0735 26.2295C55.6938 27.3687 55.1622 30.2544 54.8584 32.6086C54.0231 40.7343 58.1998 45.5946 66.4015 46.1262C70.3504 46.354 71.3377 46.1262 73.8437 44.4554L76.7295 42.481L79.0077 44.1517C80.6025 45.3667 82.577 45.8983 85.9943 46.1262C91.4621 46.4299 94.5757 44.9111 97.2336 40.8103C98.6006 38.608 98.7525 37.4689 98.3728 32.3048C97.9171 25.5461 96.6261 23.2678 94.2719 24.7107C93.4366 25.2423 93.0569 26.3814 93.1328 27.7484C93.8163 37.6967 93.7403 38.0004 91.614 39.899C88.4245 42.6329 83.2605 42.1013 80.6784 38.7599C79.6153 37.317 79.3874 32.6086 80.3747 32.6086C81.5138 32.6086 82.0454 30.1785 81.1341 29.0394C79.6912 27.3687 72.5527 27.9762 72.249 29.7988C72.0971 30.5582 72.5527 31.8492 73.2362 32.6086C74.9069 34.4312 74.2994 37.317 71.7174 39.899C69.1354 42.481 64.7308 42.405 61.845 39.7471C59.7946 37.8486 59.7187 37.6967 60.2502 31.4695C60.63 26.1536 60.554 25.0904 59.4908 24.7107C57.4404 23.9513 56.9088 24.1791 56.0735 26.2295Z" fill="black"/>
<path d="M21.5962 34.8868C21.3683 35.2665 21.3683 36.3297 21.5962 37.241C22.0518 38.532 22.6593 38.7598 25.2413 38.532C28.0512 38.3042 28.4309 38.0764 28.4309 36.4056C28.4309 34.7349 28.0512 34.5071 25.2413 34.2793C23.5706 34.1274 21.8999 34.4312 21.5962 34.8868Z" fill="black"/>
<path d="M25.504 62.264C25.472 62.632 25.28 62.952 24.928 63.224C24.592 63.48 24.16 63.696 23.632 63.872C23.104 64.048 22.504 64.184 21.832 64.28C21.176 64.36 20.504 64.4 19.816 64.4C19.144 64.4 18.488 64.36 17.848 64.28C17.208 64.2 16.64 64.072 16.144 63.896C15.648 63.72 15.248 63.504 14.944 63.248C14.64 62.976 14.48 62.656 14.464 62.288C14.448 61.968 14.44 61.664 14.44 61.376C14.44 61.072 14.44 60.768 14.44 60.464C14.44 59.408 14.464 58.368 14.512 57.344C14.576 56.304 14.68 55.216 14.824 54.08C14.872 53.728 15.032 53.472 15.304 53.312C15.576 53.152 15.888 53.056 16.24 53.024C16.624 52.992 17.04 52.968 17.488 52.952C17.936 52.936 18.408 52.928 18.904 52.928C19.752 52.928 20.608 52.952 21.472 53C22.336 53.048 23.12 53.128 23.824 53.24C24.336 53.288 24.688 53.424 24.88 53.648C25.072 53.872 25.208 54.192 25.288 54.608C25.336 54.896 25.376 55.256 25.408 55.688C25.456 56.12 25.496 56.592 25.528 57.104C25.72 57.104 25.912 57.104 26.104 57.104C26.312 57.088 26.528 57.08 26.752 57.08C26.976 57.08 27.192 57.088 27.4 57.104C27.608 57.104 27.824 57.104 28.048 57.104L27.904 53.624C27.888 53.464 27.928 53.32 28.024 53.192C28.12 53.064 28.24 52.96 28.384 52.88C28.544 52.784 28.728 52.712 28.936 52.664C29.144 52.616 29.352 52.592 29.56 52.592C29.912 52.592 30.232 52.664 30.52 52.808C30.824 52.952 31.008 53.184 31.072 53.504C31.312 54.832 31.488 56.208 31.6 57.632C31.712 59.056 31.768 60.44 31.768 61.784C31.768 62.664 31.744 63.488 31.696 64.256C31.68 64.56 31.48 64.792 31.096 64.952C30.712 65.096 30.288 65.168 29.824 65.168C29.312 65.168 28.856 65.08 28.456 64.904C28.056 64.712 27.872 64.432 27.904 64.064C27.952 63.488 27.992 62.88 28.024 62.24C28.056 61.6 28.072 60.936 28.072 60.248C27.672 60.248 27.256 60.248 26.824 60.248C26.408 60.248 26 60.256 25.6 60.272C25.584 60.656 25.568 61.024 25.552 61.376C25.552 61.712 25.536 62.008 25.504 62.264ZM25.528 65.504C26.344 65.504 27.08 65.648 27.736 65.936C28.408 66.208 28.984 66.584 29.464 67.064C29.944 67.528 30.312 68.08 30.568 68.72C30.824 69.344 30.952 70 30.952 70.688C30.984 72.048 30.56 73.104 29.68 73.856C28.8 74.624 27.424 75.008 25.552 75.008C23.712 75.008 22.36 74.64 21.496 73.904C20.648 73.168 20.224 72.152 20.224 70.856C20.224 70.12 20.344 69.424 20.584 68.768C20.84 68.112 21.2 67.544 21.664 67.064C22.128 66.584 22.688 66.208 23.344 65.936C24 65.648 24.728 65.504 25.528 65.504ZM18.064 60.68C18.064 60.824 18.12 60.952 18.232 61.064C18.36 61.16 18.52 61.24 18.712 61.304C18.904 61.352 19.12 61.392 19.36 61.424C19.6 61.456 19.84 61.472 20.08 61.472C20.32 61.472 20.56 61.456 20.8 61.424C21.04 61.392 21.256 61.344 21.448 61.28C21.64 61.216 21.792 61.136 21.904 61.04C22.032 60.928 22.096 60.792 22.096 60.632V59.432C22.096 58.888 22.088 58.344 22.072 57.8C22.056 57.256 22.016 56.72 21.952 56.192C21.92 56 21.824 55.88 21.664 55.832C21.504 55.768 21.328 55.728 21.136 55.712C20.768 55.68 20.368 55.672 19.936 55.688C19.504 55.704 19.096 55.728 18.712 55.76C18.488 55.792 18.344 55.848 18.28 55.928C18.216 55.992 18.176 56.088 18.16 56.216C18.112 56.68 18.08 57.152 18.064 57.632C18.048 58.112 18.04 58.592 18.04 59.072C18.04 59.344 18.04 59.616 18.04 59.888C18.04 60.144 18.048 60.408 18.064 60.68ZM25.624 68.432C25.24 68.432 24.92 68.504 24.664 68.648C24.408 68.776 24.192 68.944 24.016 69.152C23.856 69.36 23.736 69.592 23.656 69.848C23.592 70.104 23.56 70.36 23.56 70.616C23.56 71.128 23.752 71.504 24.136 71.744C24.536 71.984 25.008 72.104 25.552 72.104C25.824 72.104 26.088 72.072 26.344 72.008C26.616 71.944 26.848 71.848 27.04 71.72C27.248 71.592 27.408 71.432 27.52 71.24C27.648 71.048 27.712 70.824 27.712 70.568C27.712 69.944 27.528 69.432 27.16 69.032C26.808 68.632 26.296 68.432 25.624 68.432ZM45.4386 65.504C46.2546 65.504 46.9906 65.648 47.6466 65.936C48.3186 66.208 48.8946 66.584 49.3746 67.064C49.8546 67.528 50.2226 68.08 50.4786 68.72C50.7346 69.344 50.8626 70 50.8626 70.688C50.8626 72.032 50.4226 73.088 49.5426 73.856C48.6786 74.624 47.3186 75.008 45.4626 75.008C43.6226 75.008 42.2706 74.64 41.4066 73.904C40.5586 73.168 40.1346 72.152 40.1346 70.856C40.1346 70.12 40.2546 69.424 40.4946 68.768C40.7506 68.112 41.1106 67.544 41.5746 67.064C42.0386 66.584 42.5986 66.208 43.2546 65.936C43.9106 65.648 44.6386 65.504 45.4386 65.504ZM38.7186 60.704C38.7346 60.976 38.8466 61.16 39.0546 61.256C39.2786 61.336 39.5266 61.392 39.7986 61.424C40.3746 61.472 40.9746 61.496 41.5986 61.496C42.3186 61.496 43.0466 61.472 43.7826 61.424C44.5346 61.376 45.2466 61.312 45.9186 61.232C46.1586 61.216 46.3586 61.36 46.5186 61.664C46.6786 61.968 46.7586 62.296 46.7586 62.648C46.7586 62.872 46.7186 63.08 46.6386 63.272C46.5586 63.448 46.4226 63.56 46.2306 63.608C45.2226 63.864 44.1906 64.072 43.1346 64.232C42.0946 64.376 41.0466 64.448 39.9906 64.448C39.3826 64.448 38.7746 64.424 38.1666 64.376C37.5746 64.312 36.9986 64.216 36.4386 64.088C36.0226 63.992 35.6866 63.808 35.4306 63.536C35.1746 63.248 35.0306 62.92 34.9986 62.552C34.9826 62.28 34.9666 62.024 34.9506 61.784C34.9506 61.528 34.9506 61.264 34.9506 60.992C34.9506 59.808 35.0146 58.616 35.1426 57.416C35.2866 56.216 35.4786 54.968 35.7186 53.672C35.7826 53.336 35.9506 53.104 36.2226 52.976C36.4946 52.832 36.8066 52.76 37.1586 52.76C37.3986 52.76 37.6386 52.792 37.8786 52.856C38.1186 52.904 38.3346 52.976 38.5266 53.072C38.7186 53.152 38.8706 53.256 38.9826 53.384C39.0946 53.496 39.1426 53.616 39.1266 53.744C38.9826 54.704 38.8706 55.624 38.7906 56.504C38.7106 57.384 38.6706 58.28 38.6706 59.192C38.6706 59.448 38.6706 59.696 38.6706 59.936C38.6866 60.176 38.7026 60.432 38.7186 60.704ZM47.3346 64.064C47.3986 63.392 47.4466 62.688 47.4786 61.952C47.5106 61.216 47.5266 60.448 47.5266 59.648C47.5266 58.672 47.5026 57.68 47.4546 56.672C47.4226 55.648 47.3826 54.632 47.3346 53.624C47.3186 53.464 47.3586 53.32 47.4546 53.192C47.5506 53.064 47.6706 52.96 47.8146 52.88C47.9746 52.784 48.1586 52.712 48.3666 52.664C48.5746 52.616 48.7826 52.592 48.9906 52.592C49.3426 52.592 49.6626 52.664 49.9506 52.808C50.2546 52.952 50.4386 53.184 50.5026 53.504L50.7186 54.848H51.4146C51.7026 54.848 51.9826 54.848 52.2546 54.848C52.5266 54.848 52.7986 54.856 53.0706 54.872C53.3746 54.888 53.5986 55.04 53.7426 55.328C53.9026 55.616 53.9826 55.936 53.9826 56.288C53.9826 56.656 53.8946 56.992 53.7186 57.296C53.5426 57.6 53.2706 57.752 52.9026 57.752C52.5826 57.752 52.2706 57.752 51.9666 57.752C51.6626 57.752 51.3506 57.76 51.0306 57.776C51.0626 58.08 51.0866 58.376 51.1026 58.664C51.1186 58.952 51.1346 59.248 51.1506 59.552C51.5186 59.536 51.8786 59.536 52.2306 59.552C52.5986 59.552 52.9586 59.56 53.3106 59.576C53.6146 59.592 53.8386 59.744 53.9826 60.032C54.1426 60.32 54.2226 60.64 54.2226 60.992C54.2226 61.36 54.1346 61.696 53.9586 62C53.7826 62.304 53.5106 62.456 53.1426 62.456C52.8066 62.456 52.4786 62.456 52.1586 62.456C51.8546 62.456 51.5346 62.464 51.1986 62.48L51.1266 64.256C51.1106 64.56 50.9106 64.792 50.5266 64.952C50.1426 65.096 49.7186 65.168 49.2546 65.168C48.7426 65.168 48.2866 65.08 47.8866 64.904C47.4866 64.712 47.3026 64.432 47.3346 64.064ZM45.5346 68.432C45.1506 68.432 44.8306 68.504 44.5746 68.648C44.3186 68.776 44.1026 68.944 43.9266 69.152C43.7666 69.36 43.6466 69.592 43.5666 69.848C43.5026 70.104 43.4706 70.36 43.4706 70.616C43.4706 71.128 43.6626 71.504 44.0466 71.744C44.4466 71.984 44.9186 72.104 45.4626 72.104C45.7346 72.104 45.9986 72.072 46.2546 72.008C46.5266 71.944 46.7586 71.848 46.9506 71.72C47.1586 71.592 47.3186 71.432 47.4306 71.24C47.5586 71.048 47.6226 70.824 47.6226 70.568C47.6226 69.944 47.4386 69.432 47.0706 69.032C46.7186 68.632 46.2066 68.432 45.5346 68.432ZM68.4693 70.472C68.5973 69.384 68.6853 68.144 68.7333 66.752C68.7813 65.36 68.8053 63.92 68.8053 62.432C68.8053 61.264 68.7893 60.112 68.7573 58.976C68.7413 57.824 68.7173 56.736 68.6853 55.712C68.6693 55.392 68.8373 55.144 69.1893 54.968C69.5573 54.776 69.9493 54.68 70.3653 54.68C70.7173 54.68 71.0373 54.752 71.3253 54.896C71.6133 55.04 71.7893 55.272 71.8533 55.592C72.0933 57.08 72.2693 58.72 72.3813 60.512C72.4933 62.304 72.5493 64.072 72.5493 65.816C72.5493 66.696 72.5333 67.544 72.5013 68.36C72.4853 69.176 72.4453 69.936 72.3813 70.64C72.3493 70.928 72.1573 71.136 71.8053 71.264C71.4533 71.392 71.0533 71.456 70.6053 71.456C70.3333 71.456 70.0613 71.432 69.7893 71.384C69.5333 71.352 69.3013 71.288 69.0933 71.192C68.9013 71.112 68.7413 71.016 68.6133 70.904C68.5013 70.776 68.4533 70.632 68.4693 70.472ZM60.8372 58.64C60.3572 58.64 59.9493 58.768 59.6133 59.024C59.2933 59.28 59.0293 59.608 58.8213 60.008C58.6133 60.408 58.4613 60.864 58.3653 61.376C58.2853 61.888 58.2453 62.392 58.2453 62.888C58.2453 63.8 58.4933 64.488 58.9893 64.952C59.4853 65.416 60.0773 65.648 60.7653 65.648C61.1173 65.648 61.4533 65.584 61.7733 65.456C62.0933 65.328 62.3813 65.144 62.6373 64.904C62.8933 64.648 63.0933 64.336 63.2373 63.968C63.3973 63.6 63.4773 63.184 63.4773 62.72C63.4773 62.16 63.4213 61.632 63.3093 61.136C63.1973 60.64 63.0293 60.208 62.8053 59.84C62.5813 59.472 62.3013 59.184 61.9653 58.976C61.6453 58.752 61.2693 58.64 60.8372 58.64ZM60.7653 55.472C61.6773 55.472 62.5093 55.672 63.2613 56.072C64.0133 56.456 64.6533 56.984 65.1813 57.656C65.7253 58.312 66.1413 59.08 66.4293 59.96C66.7333 60.84 66.8853 61.76 66.8853 62.72C66.8853 63.648 66.7653 64.488 66.5253 65.24C66.2853 65.976 65.9173 66.608 65.4213 67.136C64.9253 67.664 64.2853 68.072 63.5013 68.36C62.7333 68.632 61.8213 68.768 60.7653 68.768C58.7013 68.768 57.1813 68.256 56.2053 67.232C55.2293 66.192 54.7413 64.76 54.7413 62.936C54.7413 61.912 54.8853 60.952 55.1733 60.056C55.4613 59.144 55.8613 58.352 56.3733 57.68C56.9013 56.992 57.5333 56.456 58.2693 56.072C59.0213 55.672 59.8533 55.472 60.7653 55.472ZM86.6519 58.712C86.6519 59.064 86.5559 59.376 86.3639 59.648C86.1719 59.904 85.7959 60.032 85.2359 60.032C84.3879 60.032 83.5319 60.04 82.6679 60.056C81.8039 60.072 80.9399 60.096 80.0759 60.128C79.5799 60.16 79.3319 60.4 79.3319 60.848C79.3319 60.976 79.3319 61.096 79.3319 61.208C79.3319 61.304 79.3479 61.44 79.3799 61.616C79.4119 61.856 79.5479 62.008 79.7879 62.072C80.0279 62.136 80.2839 62.176 80.5559 62.192C80.7959 62.192 81.0359 62.2 81.2759 62.216C81.5159 62.216 81.7559 62.216 81.9959 62.216C82.7639 62.216 83.5239 62.2 84.2759 62.168C85.0439 62.136 85.8039 62.088 86.5559 62.024C86.7959 62.008 86.9879 62.136 87.1319 62.408C87.2919 62.664 87.3719 62.936 87.3719 63.224C87.3719 63.432 87.3319 63.616 87.2519 63.776C87.1719 63.936 87.0359 64.04 86.8439 64.088C85.8999 64.312 84.9079 64.496 83.8679 64.64C82.8279 64.784 81.7639 64.856 80.6759 64.856C80.0679 64.856 79.4599 64.832 78.8519 64.784C78.2599 64.736 77.6599 64.656 77.0519 64.544C76.6359 64.464 76.3079 64.288 76.0679 64.016C75.8439 63.744 75.7159 63.432 75.6839 63.08C75.6359 62.392 75.6119 61.72 75.6119 61.064C75.6119 60.424 75.6359 59.72 75.6839 58.952C75.7159 58.584 75.8679 58.296 76.1399 58.088C76.4279 57.88 76.8119 57.76 77.2919 57.728C78.1559 57.68 79.0919 57.656 80.0999 57.656C80.4999 57.656 80.8999 57.664 81.2999 57.68C81.6999 57.68 82.0919 57.68 82.4759 57.68C82.6999 57.68 82.8679 57.64 82.9799 57.56C83.0919 57.48 83.1399 57.328 83.1239 57.104C83.1079 56.944 83.0999 56.784 83.0999 56.624C83.0999 56.464 83.0839 56.32 83.0519 56.192C83.0199 56.016 82.9399 55.904 82.8119 55.856C82.6839 55.808 82.5079 55.776 82.2839 55.76C81.2759 55.712 80.2439 55.688 79.1879 55.688C78.7239 55.688 78.2679 55.696 77.8199 55.712C77.3719 55.712 76.9239 55.72 76.4759 55.736C76.2199 55.752 76.0199 55.624 75.8759 55.352C75.7479 55.064 75.6839 54.752 75.6839 54.416C75.6839 54.112 75.7399 53.84 75.8519 53.6C75.9639 53.344 76.1399 53.208 76.3799 53.192C77.9159 53.048 79.5319 52.976 81.2279 52.976C81.8359 52.976 82.4439 52.992 83.0519 53.024C83.6759 53.04 84.2919 53.064 84.8999 53.096C85.4119 53.128 85.7639 53.264 85.9559 53.504C86.1479 53.744 86.2839 54.064 86.3639 54.464C86.4119 54.688 86.4519 54.96 86.4839 55.28C86.5159 55.6 86.5479 55.952 86.5799 56.336C86.6119 56.72 86.6279 57.12 86.6279 57.536C86.6439 57.936 86.6519 58.328 86.6519 58.712ZM86.2199 65.888C87.0359 65.888 87.7719 66.024 88.4279 66.296C89.0999 66.568 89.6759 66.936 90.1559 67.4C90.6359 67.848 91.0039 68.376 91.2599 68.984C91.5159 69.576 91.6439 70.208 91.6439 70.88C91.6439 72.16 91.2119 73.168 90.3479 73.904C89.4839 74.64 88.1159 75.008 86.2439 75.008C84.4199 75.008 83.0759 74.656 82.2119 73.952C81.3479 73.248 80.9159 72.28 80.9159 71.048C80.9159 70.328 81.0359 69.656 81.2759 69.032C81.5319 68.408 81.8919 67.864 82.3559 67.4C82.8199 66.92 83.3799 66.552 84.0359 66.296C84.6919 66.024 85.4199 65.888 86.2199 65.888ZM88.3559 64.424C88.4199 63.752 88.4679 63.032 88.4999 62.264C88.5319 61.496 88.5479 60.688 88.5479 59.84C88.5479 58.816 88.5239 57.776 88.4759 56.72C88.4439 55.664 88.4039 54.632 88.3559 53.624C88.3399 53.464 88.3799 53.32 88.4759 53.192C88.5719 53.064 88.6919 52.96 88.8359 52.88C88.9959 52.784 89.1799 52.712 89.3879 52.664C89.5959 52.616 89.8039 52.592 90.0119 52.592C90.3639 52.592 90.6839 52.664 90.9719 52.808C91.2759 52.952 91.4599 53.184 91.5239 53.504C91.7319 54.736 91.8999 56.064 92.0279 57.488C92.3479 57.488 92.6679 57.488 92.9879 57.488C93.3239 57.488 93.6439 57.496 93.9479 57.512C94.2359 57.528 94.4519 57.688 94.5959 57.992C94.7399 58.28 94.8119 58.608 94.8119 58.976C94.8119 59.184 94.7879 59.392 94.7399 59.6C94.6919 59.808 94.6199 60 94.5239 60.176C94.4279 60.336 94.3079 60.472 94.1639 60.584C94.0199 60.68 93.8519 60.728 93.6599 60.728C93.4039 60.728 93.1559 60.728 92.9159 60.728C92.6759 60.728 92.4359 60.736 92.1959 60.752C92.2119 61.008 92.2199 61.256 92.2199 61.496C92.2199 61.72 92.2199 61.952 92.2199 62.192C92.2199 63.072 92.1959 63.88 92.1479 64.616C92.1319 64.92 91.9319 65.152 91.5479 65.312C91.1639 65.456 90.7399 65.528 90.2759 65.528C89.7639 65.528 89.3079 65.44 88.9079 65.264C88.5079 65.072 88.3239 64.792 88.3559 64.424ZM86.3159 68.816C85.9319 68.816 85.6119 68.88 85.3559 69.008C85.0999 69.12 84.8839 69.272 84.7079 69.464C84.5479 69.656 84.4279 69.872 84.3479 70.112C84.2839 70.336 84.2519 70.568 84.2519 70.808C84.2519 71.224 84.4439 71.544 84.8279 71.768C85.2279 71.992 85.6999 72.104 86.2439 72.104C86.5159 72.104 86.7799 72.072 87.0359 72.008C87.3079 71.96 87.5399 71.872 87.7319 71.744C87.9399 71.632 88.0999 71.496 88.2119 71.336C88.3399 71.176 88.4039 70.984 88.4039 70.76C88.4039 70.216 88.2199 69.76 87.8519 69.392C87.4999 69.008 86.9879 68.816 86.3159 68.816Z" fill="black"/>
</svg>
